<svg xmlns="http://www.w3.org/2000/svg" fill="none" viewBox="0 0 792 440" height="440" width="792">
<path stroke-linejoin="round" stroke-linecap="round" stroke-width="0.9" stroke="#082120" d="M603.197 166.426L585.163 124.8"></path>
<path stroke-linejoin="round" stroke-linecap="round" stroke-width="0.9" stroke="#082120" d="M603.627 123.385C597.616 123.385 595.225 127.83 595.225 127.83C595.225 127.83 592.463 124.597 589.028 125.001C585.593 125.405 586.452 127.83 586.452 127.83"></path>
<path stroke-linejoin="round" stroke-linecap="round" stroke-width="0.9" stroke="#082120" d="M595.254 127.022L595.253 126.622L595.25 125.823L595 51.4934"></path>
<path stroke-linejoin="round" stroke-linecap="round" stroke-width="0.9" stroke="#082120" d="M585.163 52.8643V124.801"></path>
<path stroke-linejoin="round" stroke-linecap="round" stroke-width="0.9" stroke="#082120" d="M597.616 153.49C599.334 153.49 601.266 153.086 603.198 153.086C605.13 153.086 607.277 153.086 609.209 153.49"></path>
<path stroke-linejoin="round" stroke-linecap="round" stroke-width="0.9" stroke="#082120" d="M603.841 166.426L621.875 124.8"></path>
<path stroke-linejoin="round" stroke-linecap="round" stroke-width="0.9" stroke="#082120" d="M603.198 123.385C609.21 123.385 611.572 127.83 611.572 127.83C611.572 127.83 614.362 124.597 617.797 125.001C621.233 125.405 620.374 127.83 620.374 127.83"></path>
<path stroke-linejoin="round" stroke-linecap="round" stroke-width="0.9" stroke="#082120" d="M611.571 51.1555V125.809V126.617V127.021"></path>
<path stroke-linejoin="round" stroke-linecap="round" stroke-width="0.9" stroke="#082120" d="M621.877 52.281V124.799"></path>
<path stroke-linejoin="round" stroke-linecap="round" stroke-width="0.9" stroke="#082120" d="M609.423 153.49C607.705 153.49 605.773 153.086 603.841 153.086C601.908 153.086 599.761 153.086 597.829 153.49"></path>
<path stroke-linejoin="round" stroke-linecap="round" stroke-width="0.9" stroke="#082120" d="M602.988 363.44H613.079V353.337C613.079 353.337 617.373 335.757 618.876 331.312C620.378 326.866 620.378 316.561 620.378 316.561L617.706 316.561"></path>
<path stroke-linejoin="round" stroke-linecap="round" stroke-width="0.9" stroke="#082120" d="M613.075 363.436C613.075 363.436 617.369 372.327 619.516 380.006"></path>
<path stroke-linejoin="round" stroke-linecap="round" stroke-width="0.9" stroke="#082120" d="M603.608 267.103C603.608 267.103 604.701 271.498 607.278 274.731C609.854 277.964 621.447 295.342 621.018 303.424C620.589 311.507 617.798 316.559 617.798 316.559L603.58 315.976"></path>
<path stroke-linejoin="round" stroke-linecap="round" stroke-width="0.9" stroke="#082120" d="M603.468 266.973C603.468 266.973 602.341 271.498 599.765 274.731C597.188 277.964 585.595 295.342 586.024 303.425C586.454 311.507 589.245 316.559 589.245 316.559L603.356 315.976"></path>
<path stroke-linejoin="round" stroke-linecap="round" stroke-width="0.9" stroke="#082120" d="M604.057 363.44H593.967V353.337C593.967 353.337 589.673 335.757 588.17 331.312C586.667 326.866 586.667 316.561 586.667 316.561H589.231"></path>
<path stroke-linejoin="round" stroke-linecap="round" stroke-width="0.9" stroke="#082120" d="M593.968 363.436C593.968 363.436 589.674 372.327 587.527 380.006"></path>
<path stroke-linejoin="round" stroke-linecap="round" stroke-width="0.9" stroke="#082120" d="M598.905 351.516H607.922"></path>
<path stroke-linejoin="round" stroke-linecap="round" stroke-width="0.9" stroke="#082120" d="M593.536 320.4L595.898 322.622H604.485"></path>
<path stroke-linejoin="round" stroke-linecap="round" stroke-width="0.9" stroke="#082120" d="M613.505 320.4L611.143 322.622H602.555"></path>
<path stroke-linejoin="round" stroke-linecap="round" stroke-width="0.9" stroke="#082120" d="M703.887 111.657C699.164 117.517 688.429 128.429 686.711 130.045C681.773 134.491 672.542 139.138 672.542 139.138C672.542 139.138 657.513 149.848 652.36 153.485C644.202 159.345 626.597 169.449 620.156 176.521C613.93 183.391 601.693 207.842 597.828 215.924C597.184 217.137 598.258 218.551 599.76 218.349C602.551 217.945 607.06 216.531 610.924 211.883C617.365 204.204 623.806 191.272 628.529 185.816C632.823 180.764 638.405 177.935 652.146 172.884C664.169 168.438 639.908 205.215 634.111 213.702C633.467 214.712 634.111 216.328 635.4 216.531C637.117 216.935 639.908 216.531 643.558 214.308C644.202 213.904 644.631 213.5 645.275 212.893C653.004 206.427 657.084 196.324 660.733 192.282C671.253 181.169 681.129 181.371 693.582 168.034C693.582 168.034 701.955 157.931 706.463 152.475C707.966 150.656 710.849 147.081 713.425 143.444"></path>
<path stroke-linejoin="round" stroke-linecap="round" stroke-width="0.9" stroke="#082120" d="M634.109 212.489C632.606 209.256 630.889 206.831 630.674 204.608C629.6 197.94 637.974 179.148 637.974 179.148"></path>
<path stroke-linejoin="round" stroke-linecap="round" stroke-width="0.9" stroke="#082120" d="M621.643 196.143C621.643 196.143 619.511 206.427 621.228 209.862C624.449 216.127 628.957 224.815 631.319 228.655C633.68 232.494 634.262 229.867 635.121 228.655C636.624 226.634 637.563 221.382 636.274 216.936"></path>
<path stroke-linejoin="round" stroke-linecap="round" stroke-width="0.9" stroke="#082120" d="M636.901 224.611C636.901 224.611 643.252 222.679 643.252 214.798"></path>
<path stroke-linejoin="round" stroke-linecap="round" stroke-width="0.9" stroke="#082120" d="M640.767 202.791C640.767 202.791 638.62 197.133 640.767 191.88C642.914 185.818 647.637 174.906 647.637 174.906"></path>
<path stroke-linejoin="round" stroke-linecap="round" stroke-width="0.9" stroke="#082120" d="M650.568 207.679L653.434 211.076C654.079 212.087 655.581 211.884 656.44 211.076C657.943 209.055 659.661 205.014 656.44 199.356"></path>
<path stroke-linejoin="round" stroke-linecap="round" stroke-width="0.9" stroke="#082120" d="M643.128 198.142C643.128 198.142 641.41 195.111 640.552 193.292"></path>
<path stroke-linejoin="round" stroke-linecap="round" stroke-width="0.9" stroke="#082120" d="M590.318 228.247C592.465 226.227 596.758 222.387 598.905 220.771C603.843 217.134 608.352 216.729 611.358 216.931C614.363 217.134 613.505 218.548 612.646 219.76C610.069 222.791 602.555 231.48 597.188 237.34"></path>
<path stroke-linejoin="round" stroke-linecap="round" stroke-width="0.9" stroke="#082120" d="M493.37 256.805C500.455 250.743 507.229 244.413 507.229 244.413C522.902 234.108 532.349 236.735 545.445 228.248C550.168 225.217 556.824 216.326 565.841 211.88C566.485 211.476 567.344 211.274 567.988 211.072C572.067 209.456 574.643 209.86 576.361 210.668C577.649 211.274 577.864 212.891 576.79 213.699C568.847 220.771 535.784 250.677 548.665 249.263C563.265 247.646 569.491 246.03 574.858 242.191C578.722 239.362 584.09 233.906 589.672 228.652C589.672 228.652 596.327 228.248 596.757 237.543C596.757 240.17 584.305 250.475 580.655 252.9C572.496 258.356 553.174 265.833 543.942 269.47C537.931 271.895 509.376 281.392 504.653 284.625C503.58 285.433 497.93 290.666 494.495 293.495"></path>
<path stroke-linejoin="round" stroke-linecap="round" stroke-width="0.9" stroke="#082120" d="M576.361 214.713C577.005 218.148 577.863 220.977 577.649 223.2C577.005 230.07 564.123 246.235 564.123 246.235"></path>
<path stroke-linejoin="round" stroke-linecap="round" stroke-width="0.9" stroke="#082120" d="M584.305 233.706C584.305 233.706 589.029 223.805 588.17 220.167C586.667 213.297 584.735 203.8 583.232 199.556C581.729 195.313 580.608 197.333 579.749 198.141C577.817 199.757 575.932 203.194 575.717 207.639C575.503 212.085 575.717 209.256 575.717 209.862"></path>
<path stroke-linejoin="round" stroke-linecap="round" stroke-width="0.9" stroke="#082120" d="M576.791 202.382C576.791 202.382 569.921 203.595 567.988 211.071"></path>
<path stroke-linejoin="round" stroke-linecap="round" stroke-width="0.9" stroke="#082120" d="M567.344 222.591C567.344 222.591 567.988 228.451 564.768 233.098C561.547 237.746 553.604 248.051 553.604 248.051"></path>
<path stroke-linejoin="round" stroke-linecap="round" stroke-width="0.9" stroke="#082120" d="M548.667 225.423L545.876 216.532C545.446 215.522 543.943 215.118 543.085 215.926C541.152 217.543 538.576 220.978 539.864 227.242L540.938 230.677"></path>
<path stroke-linejoin="round" stroke-linecap="round" stroke-width="0.9" stroke="#082120" d="M553.175 237.142C553.175 237.142 555.322 242.194 555.966 244.82"></path>
<path stroke-linejoin="round" stroke-linecap="round" stroke-width="0.9" stroke="#082120" d="M598.479 230.472C598.835 230.472 599.124 230.201 599.124 229.866C599.124 229.532 598.835 229.26 598.479 229.26C598.123 229.26 597.834 229.532 597.834 229.866C597.834 230.201 598.123 230.472 598.479 230.472Z"></path>
<path stroke-linejoin="round" stroke-linecap="round" stroke-width="0.9" stroke="#082120" d="M566.272 217.54C566.628 217.54 566.916 217.268 566.916 216.934C566.916 216.599 566.628 216.328 566.272 216.328C565.916 216.328 565.627 216.599 565.627 216.934C565.627 217.268 565.916 217.54 566.272 217.54Z"></path>
<path stroke-linejoin="round" stroke-linecap="round" stroke-width="0.9" stroke="#082120" d="M582.59 213.294C582.946 213.294 583.235 213.023 583.235 212.688C583.235 212.353 582.946 212.082 582.59 212.082C582.234 212.082 581.945 212.353 581.945 212.688C581.945 213.023 582.234 213.294 582.59 213.294Z"></path>
<path stroke-linejoin="round" stroke-linecap="round" stroke-width="0.9" stroke="#082120" d="M541.795 251.49C542.151 251.49 542.44 251.219 542.44 250.884C542.44 250.549 542.151 250.278 541.795 250.278C541.439 250.278 541.15 250.549 541.15 250.884C541.15 251.219 541.439 251.49 541.795 251.49Z"></path>
<path stroke-linejoin="round" stroke-linecap="round" stroke-width="0.9" stroke="#082120" d="M579.583 253.311C579.583 253.311 581.515 245.633 573.571 243.006"></path>
<path stroke-linejoin="round" stroke-linecap="round" stroke-width="0.9" stroke="#082120" d="M578.724 248.052C578.724 248.052 557.898 257.953 534.497 258.155C534.497 258.155 528.271 248.052 529.344 235.523"></path>
<path stroke-linejoin="round" stroke-linecap="round" stroke-width="0.9" stroke="#082120" d="M554.031 235.321C554.031 235.321 552.314 228.653 545.873 228.451"></path>
<path stroke-linejoin="round" stroke-linecap="round" stroke-width="0.9" stroke="#082120" d="M565.194 224.208C565.194 224.208 565.194 218.146 559.397 216.328"></path>
<path stroke-linejoin="round" stroke-linecap="round" stroke-width="0.9" stroke="#082120" d="M577.433 218.755C577.433 218.755 581.726 215.32 586.45 215.926"></path>
<path stroke-linejoin="round" stroke-linecap="round" stroke-width="0.9" stroke="#082120" d="M573.571 233.102C573.571 233.102 579.153 231.485 583.447 233.708"></path>
<path stroke-linejoin="round" stroke-linecap="round" stroke-width="0.9" stroke="#082120" d="M564.338 233.91C564.338 233.91 568.632 232.697 572.067 234.92"></path>
<path stroke-linejoin="round" stroke-linecap="round" stroke-width="0.9" stroke="#082120" d="M567.56 225.016C567.56 225.016 572.283 221.379 577.435 222.187"></path>
<path stroke-linejoin="round" stroke-linecap="round" stroke-width="0.9" stroke="#082120" d="M529.835 244.285C529.835 244.285 545.873 235.319 551.24 230.672"></path>
<path stroke-linejoin="round" stroke-linecap="round" stroke-width="0.9" stroke="#082120" d="M516.244 264.822C515.386 265.226 505.51 271.894 494.131 279.573"></path>
<path stroke-linejoin="round" stroke-linecap="round" stroke-width="0.9" stroke="#082120" d="M534.283 258.156C534.283 258.156 530.418 258.964 525.48 260.985"></path>
<path stroke-linejoin="round" stroke-linecap="round" stroke-width="0.9" stroke="#082120" d="M520.755 267.049C523.245 267.049 525.263 265.149 525.263 262.806C525.263 260.462 523.245 258.562 520.755 258.562C518.265 258.562 516.246 260.462 516.246 262.806C516.246 265.149 518.265 267.049 520.755 267.049Z"></path>
<path stroke-linejoin="round" stroke-linecap="round" stroke-width="0.9" stroke="#082120" d="M603.841 50.4331H603.626C542.68 50.4331 493.273 96.9342 493.273 154.296V278.366C493.273 335.729 542.68 382.23 603.626 382.23H603.841C664.787 382.23 714.193 335.729 714.193 278.366V154.296C714.193 96.9342 664.787 50.4331 603.841 50.4331Z"></path>
<path stroke-linejoin="round" stroke-linecap="round" stroke-width="0.9" stroke="#082120" d="M714.195 237.549L691.874 233.593"></path>
<path stroke-linejoin="round" stroke-linecap="round" stroke-width="0.9" stroke="#082120" d="M545.23 282.004L505.512 325.853"></path>
<path stroke-linejoin="round" stroke-linecap="round" stroke-width="0.9" stroke="#082120" d="M570.781 295.137L544.721 365.947"></path>
<path stroke-linejoin="round" stroke-linecap="round" stroke-width="0.9" stroke="#082120" d="M714.195 276.953L680.703 259.575"></path>
<path stroke-linejoin="round" stroke-linecap="round" stroke-width="0.9" stroke="#082120" d="M701.957 326.055L662.024 282.004"></path>
<path stroke-linejoin="round" stroke-linecap="round" stroke-width="0.9" stroke="#082120" d="M662.666 366.265L636.259 295.137"></path>
<path stroke-linejoin="round" stroke-linecap="round" stroke-width="0.9" stroke="#082120" d="M618.227 133.074C633.04 135.297 646.566 141.157 657.945 149.239"></path>
<path stroke-linejoin="round" stroke-linecap="round" stroke-width="0.9" stroke="#082120" d="M682.983 177.461C689.638 189.181 693.15 202.178 693.15 216.323C693.15 257.343 662.02 291.695 620.584 299.171"></path>
<path stroke-linejoin="round" stroke-linecap="round" stroke-width="0.9" stroke="#082120" d="M536.425 272.301C549.306 286.042 566.697 295.741 586.448 299.176"></path>
<path stroke-linejoin="round" stroke-linecap="round" stroke-width="0.9" stroke="#082120" d="M517.105 239.16C514.958 231.886 513.885 224.207 513.885 216.326C513.885 174.498 546.103 139.899 588.613 133.23"></path>
<path stroke-linejoin="round" stroke-linecap="round" stroke-width="0.9" stroke="#082120" d="M714.192 195.314L691.677 198.507"></path>
<path stroke-linejoin="round" stroke-linecap="round" stroke-width="0.9" stroke="#082120" d="M515.514 199.154L493.273 195.314"></path>
<path stroke-linejoin="round" stroke-linecap="round" stroke-width="0.9" stroke="#082120" d="M662.451 66.3923L636.259 137.521"></path>
<path stroke-linejoin="round" stroke-linecap="round" stroke-width="0.9" stroke="#082120" d="M526.336 173.289L493.273 156.113"></path>
<path stroke-linejoin="round" stroke-linecap="round" stroke-width="0.9" stroke="#082120" d="M545.015 150.652L505.512 107.005"></path>
<path stroke-linejoin="round" stroke-linecap="round" stroke-width="0.9" stroke="#082120" d="M570.565 137.518L544.587 66.5919"></path>
</svg>
