<svg xmlns="http://www.w3.org/2000/svg" fill="none" viewBox="0 0 792 440" height="440" width="792">
<path stroke-linejoin="round" stroke-linecap="round" stroke="#F7F9F2" d="M514.038 361.804H502.944V372.961H514.038V361.804Z"></path>
<path stroke-linejoin="round" stroke-linecap="round" stroke="#F7F9F2" d="M710.155 361.804H699.061V372.961H710.155V361.804Z"></path>
<path stroke-linejoin="round" stroke-linecap="round" stroke="#F7F9F2" d="M705.462 247.215C707.718 253.455 712.795 258.56 719 260.83C712.795 263.099 707.718 268.204 705.462 274.444C703.205 268.204 698.129 263.099 691.924 260.83C698.129 258.56 703.205 253.455 705.462 247.215Z"></path>
<path stroke-linejoin="round" stroke-linecap="round" stroke="#F7F9F2" d="M508.367 288.241L510.811 295.049C513.067 301.289 518.144 306.395 524.349 308.664L531.118 311.122L524.349 313.58C518.144 315.849 513.067 320.955 510.811 327.195L508.367 334.003L505.922 327.195C503.666 320.955 498.589 315.849 492.384 313.58L485.615 311.122L492.384 308.664C498.589 306.395 503.666 301.289 505.922 295.049L508.367 288.241Z"></path>
<path stroke-linejoin="round" stroke-linecap="round" stroke="#F7F9F2" d="M634.778 246.251C634.778 246.251 634.445 246.251 634.279 246.251C633.281 246.251 632.117 246.476 630.953 246.476"></path>
<path stroke-linejoin="round" stroke-linecap="round" stroke="#F7F9F2" d="M583.427 246.815C582.115 246.815 580.802 246.815 579.49 246.646"></path>
<path stroke-linejoin="round" stroke-linecap="round" stroke="#F7F9F2" d="M550.889 243.431C536.222 241.162 522.12 238.137 508.394 234.166"></path>
<path stroke-linejoin="round" stroke-linecap="round" stroke="#F7F9F2" d="M662.957 242.859C677.624 240.59 691.726 237.375 705.452 233.215"></path>
<path stroke-linejoin="round" stroke-linecap="round" stroke="#F7F9F2" d="M583.418 244.941C582.853 244.941 582.289 244.751 581.724 244.562"></path>
<path stroke-linejoin="round" stroke-linecap="round" stroke="#F7F9F2" d="M508.394 193.883C522.496 211.658 538.667 225.841 556.342 234.917"></path>
<path stroke-linejoin="round" stroke-linecap="round" stroke="#F7F9F2" d="M556.373 235.006C558.898 236.077 563.029 237.454 564.176 237.454"></path>
<path stroke-linejoin="round" stroke-linecap="round" stroke="#F7F9F2" d="M631.743 243.994C631.366 243.994 630.99 244.183 630.613 244.372"></path>
<path stroke-linejoin="round" stroke-linecap="round" stroke="#F7F9F2" d="M705.449 190.287C691.347 208.819 675.364 223.568 657.689 233.401"></path>
<path stroke-linejoin="round" stroke-linecap="round" stroke="#F7F9F2" d="M657.689 233.402C654.831 234.897 652.259 236.391 649.401 237.587"></path>
<path stroke-linejoin="round" stroke-linecap="round" stroke="#F7F9F2" d="M556.528 73.9991C557.468 88.3705 558.597 102.364 560.101 115.411C563.674 149.07 568.938 178.002 575.331 200.316C577.024 206.556 578.74 212.012 580.808 217.118"></path>
<path stroke-linejoin="round" stroke-linecap="round" stroke="#F7F9F2" d="M654.681 72.4836C653.741 87.4223 652.613 101.794 651.109 115.598C647.536 149.257 642.271 178.189 635.878 200.502C634.374 205.608 632.982 210.124 631.289 214.473"></path>
<path stroke-linejoin="round" stroke-linecap="round" stroke="#F7F9F2" d="M583.42 200.881C580.787 200.881 577.967 200.691 575.334 200.502C552.206 198.99 529.831 195.586 508.395 190.669"></path>
<path stroke-linejoin="round" stroke-linecap="round" stroke="#F7F9F2" d="M705.451 189.911C683.263 195.206 659.947 198.799 635.691 200.312C633.999 200.312 632.613 200.312 630.757 200.312"></path>
<path stroke-linejoin="round" stroke-linecap="round" stroke="#F7F9F2" d="M693.358 111.91C679.632 113.612 665.776 114.655 651.11 115.601C636.255 116.546 621.025 116.924 605.606 116.924C590.188 116.924 574.957 116.546 560.103 115.601C546.564 114.844 533.214 113.71 520.24 112.197"></path>
<path stroke-linejoin="round" stroke-linecap="round" stroke="#F7F9F2" d="M624.991 195.52C625.251 193.87 624.713 192.413 623.79 192.266C622.867 192.119 621.908 193.337 621.648 194.988C621.388 196.638 621.926 198.095 622.849 198.242C623.772 198.389 624.731 197.17 624.991 195.52Z"></path>
<path stroke-linejoin="round" stroke-linecap="round" stroke="#F7F9F2" d="M590.581 198.767C591.504 198.621 592.042 197.164 591.782 195.513C591.521 193.863 590.562 192.644 589.639 192.791C588.716 192.938 588.178 194.395 588.439 196.045C588.699 197.695 589.658 198.914 590.581 198.767Z"></path>
<path stroke-linejoin="round" stroke-linecap="round" stroke="#F7F9F2" d="M590.752 192.755C590.752 192.755 590.752 192.377 590.752 192.188C590.752 190.486 590.94 188.784 591.504 187.271C593.572 180.653 599.777 175.925 607.111 175.925C614.444 175.925 620.461 180.653 622.717 187.271C623.281 188.784 623.469 190.486 623.469 192.188"></path>
<path stroke-linejoin="round" stroke-linecap="round" stroke="#F7F9F2" d="M621.969 198.43C619.524 204.292 613.695 208.452 606.926 208.452C600.157 208.452 594.328 204.292 591.884 198.43"></path>
<path stroke-linejoin="round" stroke-linecap="round" stroke="#F7F9F2" d="M591.582 194.647C591.582 187.461 598.648 181.599 606.921 181.599C615.195 181.599 621.701 187.461 621.701 194.647"></path>
<path stroke-linejoin="round" stroke-linecap="round" stroke="#F7F9F2" d="M583.417 242.485V248.347C583.417 250.238 584.247 251.7 585.563 252.835"></path>
<path stroke-linejoin="round" stroke-linecap="round" stroke="#F7F9F2" d="M583.417 213.746V192.945C583.417 189.73 585.862 187.272 589.058 187.272H591.503"></path>
<path stroke-linejoin="round" stroke-linecap="round" stroke="#F7F9F2" d="M630.614 242.485V248.158C630.614 249.292 630.238 251.751 628.358 252.129"></path>
<path stroke-linejoin="round" stroke-linecap="round" stroke="#F7F9F2" d="M622.967 187.272H624.974C628.17 187.272 630.615 189.73 630.615 192.945V213.774"></path>
<path stroke-linejoin="round" stroke-linecap="round" stroke="#F7F9F2" d="M606.921 212.987V227.17"></path>
<path stroke-linejoin="round" stroke-linecap="round" stroke="#F7F9F2" d="M606.921 256.481V273.31"></path>
<path stroke-linejoin="round" stroke-linecap="round" stroke="#F7F9F2" d="M606.921 239.085V256.86"></path>
<path stroke-linejoin="round" stroke-linecap="round" stroke="#F7F9F2" d="M619.148 202.967V209.018C619.148 211.098 617.644 212.8 615.763 212.8H598.088C596.208 212.8 594.704 211.098 594.704 209.018V202.967"></path>
<path stroke-linejoin="round" stroke-linecap="round" stroke="#F7F9F2" d="M627.984 252.702C628.737 255.727 629.489 258.942 630.241 262.535C630.241 263.48 630.617 264.236 630.805 265.182C631.745 269.342 632.497 273.691 633.249 278.041C634.189 283.146 634.942 287.117 635.506 290.332C636.07 292.79 636.446 294.87 636.822 296.572C637.386 299.597 637.574 301.867 637.386 304.325C637.386 304.325 637.386 304.703 637.386 304.892C637.01 307.729 636.446 310.754 635.694 313.402C635.13 315.86 634.565 317.94 634.189 319.074C634.189 319.453 634.001 320.398 633.625 321.911C633.625 321.911 633.625 322.289 633.625 322.478C633.249 324.558 632.685 327.395 632.309 330.42C631.745 333.068 631.369 336.093 630.805 338.93C630.241 342.144 629.677 345.17 629.301 347.439V347.817C628.925 349.519 628.737 350.654 628.737 350.843C628.548 352.355 626.668 357.65 622.908 357.461H622.531C620.275 357.083 618.395 354.435 617.079 351.977C615.95 349.897 615.386 347.817 615.574 347.25C615.574 346.872 615.762 343.657 615.95 338.93C615.95 336.471 615.95 333.635 616.138 330.42C616.138 327.773 616.138 324.747 616.326 321.911C616.326 319.074 616.326 316.049 616.326 313.402C616.326 310.187 616.326 307.161 616.326 304.892C616.326 302.623 616.326 300.921 616.326 300.543C616.326 299.408 615.01 293.925 613.694 288.441C613.318 287.117 612.942 285.604 612.754 284.281C611.814 280.499 610.874 277.473 610.497 276.717C608.617 273.691 607.113 273.691 606.737 273.691"></path>
<path stroke-linejoin="round" stroke-linecap="round" stroke="#F7F9F2" d="M627.227 225.657C627.227 225.657 625.159 240.028 625.347 241.541C625.347 242.109 627.227 249.483 627.979 253.076"></path>
<path stroke-linejoin="round" stroke-linecap="round" stroke="#F7F9F2" d="M636.443 295.624C636.443 295.624 634.563 294.301 631.555 294.679C628.546 295.057 617.052 300.872 616.3 305.789"></path>
<path stroke-linejoin="round" stroke-linecap="round" stroke="#F7F9F2" d="M633.623 321.908C632.683 322.475 630.427 323.421 626.666 323.799C622.717 324.177 619.145 322.286 617.641 321.341C617.077 320.963 616.7 320.773 616.7 320.773"></path>
<path stroke-linejoin="round" stroke-linecap="round" stroke="#F7F9F2" d="M615.402 347.779C615.402 347.779 614.443 350.464 616.323 353.678C618.204 356.893 620.272 360.864 620.46 362.188C620.648 363.511 622.716 372.21 623.657 374.29C624.597 376.37 627.229 378.639 630.238 377.883C633.246 377.126 635.314 373.344 634.562 368.995C633.81 364.646 630.238 355.947 630.238 355.947C630.238 355.947 628.487 351.853 628.676 351.097"></path>
<path stroke-linejoin="round" stroke-linecap="round" stroke="#F7F9F2" d="M619.523 206.559C619.523 206.559 624.412 206.181 630.993 214.312C637.386 222.443 638.514 229.251 642.651 232.654C646.787 236.058 650.161 238.858 650.161 238.858C644.762 240.236 645.625 246.8 647.163 249.673C647.163 249.673 639.266 251.564 632.497 244.378C625.728 237.193 626.201 233.346 626.201 233.346"></path>
<path stroke-linejoin="round" stroke-linecap="round" stroke="#F7F9F2" d="M642.651 233.222C642.651 233.222 640.395 233.222 637.386 236.058C634.378 238.895 634.378 245.324 634.754 246.459"></path>
<path stroke-linejoin="round" stroke-linecap="round" stroke="#F7F9F2" d="M647.629 236.917C647.629 236.917 645.844 236.438 642.835 239.463C639.827 242.489 641.143 248.729 643.211 249.674"></path>
<path stroke-linejoin="round" stroke-linecap="round" stroke="#F7F9F2" d="M632.12 216.015C630.804 216.961 629.864 218.473 629.864 219.986C629.864 222.633 632.12 224.903 634.752 224.903C637.385 224.903 636.445 224.714 637.009 224.335"></path>
<path stroke-linejoin="round" stroke-linecap="round" stroke="#F7F9F2" d="M619.71 206.935C619.71 206.935 619.898 215.444 619.146 222.441C618.394 229.437 617.078 235.678 617.078 235.678H622.531C622.531 235.678 624.599 224.332 624.787 220.361C624.975 216.39 625.216 208.934 625.216 208.934"></path>
<path stroke-linejoin="round" stroke-linecap="round" stroke="#F7F9F2" d="M584.36 259.695C583.42 264.233 582.292 269.339 581.352 274.255C581.164 275.39 580.976 276.714 580.788 277.848C580.788 278.037 580.788 278.226 580.788 278.415C580.036 283.143 579.283 286.736 578.719 289.761C577.215 296.758 576.463 300.162 576.839 303.943C577.403 309.616 579.659 316.046 580.036 318.504C580.036 318.882 580.224 319.828 580.6 321.34C580.6 321.34 580.6 321.719 580.6 321.908C580.976 323.988 581.54 326.824 581.916 329.85C583.309 341.055 583.96 344.543 584.607 347.439C585.44 351.173 586.679 357.124 591.317 356.89H591.694C593.762 356.512 595.83 353.865 596.958 351.407C597.899 349.516 598.463 347.625 598.463 346.868C598.463 346.301 598.087 338.926 597.711 330.228C597.711 327.58 597.71 324.555 597.522 321.718C597.334 311.318 597.146 301.485 597.146 300.54C597.146 299.972 597.522 298.46 597.899 296.38C598.651 292.976 599.779 288.248 600.719 284.277C601.659 280.495 602.599 277.47 602.975 276.714C604.856 273.499 606.548 273.688 606.736 273.688"></path>
<path stroke-linejoin="round" stroke-linecap="round" stroke="#F7F9F2" d="M586.183 252.046C587.499 246.184 588.496 242.108 588.684 241.352C588.684 240.596 588.308 236.057 587.744 232.086C587.367 228.683 586.803 225.657 586.803 225.657"></path>
<path stroke-linejoin="round" stroke-linecap="round" stroke="#F7F9F2" d="M577.576 295.663C577.576 295.663 579.284 294.299 582.293 294.677C585.301 295.055 596.395 301.106 597.147 306.023"></path>
<path stroke-linejoin="round" stroke-linecap="round" stroke="#F7F9F2" d="M597.146 320.963C597.146 320.963 592.445 324.367 587.18 323.988C581.915 323.61 580.698 321.96 580.698 321.96"></path>
<path stroke-linejoin="round" stroke-linecap="round" stroke="#F7F9F2" d="M598.472 346.286C598.472 346.286 599.013 351.123 597.52 353.676C595.64 356.891 593.571 360.862 593.383 362.186C593.195 363.509 591.127 372.208 590.187 374.288C589.247 376.368 586.614 378.637 583.606 377.881C580.597 377.124 578.529 373.342 579.281 368.993C580.033 364.833 583.606 355.945 583.606 355.945C583.606 355.945 585.169 351.714 585.423 350.842"></path>
<path stroke-linejoin="round" stroke-linecap="round" stroke="#F7F9F2" d="M594.515 206.559C594.515 206.559 589.626 206.181 583.045 214.312C576.652 222.443 575.524 229.25 571.387 232.654C567.25 236.058 562.755 238.38 562.755 238.38C562.755 238.38 566.31 239.273 566.874 241.92C567.438 244.567 568.191 247.215 566.874 249.673C566.874 249.673 574.772 251.564 581.541 244.378C588.31 237.193 587.925 233.374 587.925 233.374"></path>
<path stroke-linejoin="round" stroke-linecap="round" stroke="#F7F9F2" d="M571.024 233.062C571.024 233.062 573.453 233.219 576.461 236.056C579.47 238.892 579.47 245.321 579.093 246.456"></path>
<path stroke-linejoin="round" stroke-linecap="round" stroke="#F7F9F2" d="M565.821 236.692C565.821 236.692 568.001 236.438 571.01 239.463C574.018 242.489 572.702 248.729 570.634 249.674"></path>
<path stroke-linejoin="round" stroke-linecap="round" stroke="#F7F9F2" d="M576.839 224.335C577.591 224.714 578.344 224.903 579.096 224.903C581.728 224.903 583.985 222.633 583.985 219.986C583.985 217.339 583.044 216.772 581.728 216.015"></path>
<path stroke-linejoin="round" stroke-linecap="round" stroke="#F7F9F2" d="M594.136 206.935C594.136 206.935 593.948 215.444 594.7 222.441C595.452 229.437 596.768 235.678 596.768 235.678H591.315C591.315 235.678 589.247 224.332 589.059 220.361C588.871 216.39 588.712 209.13 588.712 209.13"></path>
<path stroke-linejoin="round" stroke-linecap="round" stroke="#F7F9F2" d="M615.199 238.516V238.894H600.908"></path>
<path stroke-linejoin="round" stroke-linecap="round" stroke="#F7F9F2" d="M598.648 237.003V227.359H615.195V238.326"></path>
<path stroke-linejoin="round" stroke-linecap="round" stroke="#F7F9F2" d="M609.182 227.738V238.705"></path>
<path stroke-linejoin="round" stroke-linecap="round" stroke="#F7F9F2" d="M581.351 274.257C580.787 272.177 580.599 268.584 582.292 263.667C582.668 262.533 583.42 261.209 584.172 259.696C586.616 255.725 590.377 250.809 594.138 246.46C594.702 245.892 595.078 245.325 595.642 244.758C596.018 244.38 596.206 244.001 596.582 243.623C598.274 241.732 599.59 240.03 600.907 238.707C602.787 236.816 603.915 235.492 603.915 235.492C604.479 234.925 604.479 233.979 603.915 233.412C603.351 232.845 602.411 232.845 601.847 233.412C601.847 233.601 600.531 234.925 598.838 236.816C597.71 238.139 596.206 239.841 594.514 241.543C593.95 242.11 593.385 242.867 592.821 243.623C591.881 244.758 590.941 245.892 590.001 247.027C588.685 248.729 586.992 250.998 585.676 252.7C582.856 256.482 580.599 260.075 579.659 262.722C577.268 268.05 576.675 278.417 580.599 278.417"></path>
<path stroke-linejoin="round" stroke-linecap="round" stroke="#F7F9F2" d="M650.605 238.918L652.852 237.858C652.891 237.84 652.929 237.828 652.971 237.82L657.226 237.05C657.585 236.984 657.878 237.328 657.762 237.672C657.629 238.065 657.416 238.542 657.081 238.918C656.439 239.641 654.591 240.698 654.312 240.855C654.289 240.87 654.265 240.885 654.244 240.902L652.604 242.268"></path>
<path stroke-linejoin="round" stroke-linecap="round" stroke="#F7F9F2" d="M646.733 249.485C646.733 249.485 650.778 250.095 653.123 249.832C655.469 249.568 656.428 249.441 656.949 248.093C657.47 246.746 658.557 242.354 658.427 242.265C658.297 242.176 657.601 241.614 656.775 242.265C655.948 242.917 655.472 243.832 655.078 244.614C654.684 245.395 654.272 247.006 654.272 247.006C654.272 247.006 653.174 246.485 652.581 246.441C651.989 246.396 650.858 246.441 650.858 246.441"></path>
<path stroke-linejoin="round" stroke-linecap="round" stroke="#F7F9F2" d="M654.277 240.873C654.277 240.873 655.906 241.098 656.688 241.098C657.47 241.098 658.231 241.045 658.231 241.045"></path>
<path stroke-linejoin="round" stroke-linecap="round" stroke="#F7F9F2" d="M656.614 248.72C656.614 248.72 658.299 248.832 659.17 247.917C660.04 247.002 660.553 244.044 660.648 242.699C660.739 241.376 660.816 240.419 660.648 239.987C660.508 239.634 658.977 240.046 658.666 240.324C658.367 240.594 657.953 242.012 657.953 242.012"></path>
<path stroke-linejoin="round" stroke-linecap="round" stroke="#F7F9F2" d="M662.502 244.48C662.502 244.48 663.793 242.661 664.169 241.702C664.551 240.731 665.04 238.059 664.995 238.048C664.995 238.048 663.639 237.609 663.159 237.911C662.68 238.213 662.837 238.373 662.837 238.373"></path>
<path stroke-linejoin="round" stroke-linecap="round" stroke="#F7F9F2" d="M659.336 247.711C659.336 247.711 660.82 247.613 661.43 247.006C662.04 246.399 662.517 245.093 662.647 243.311C662.75 241.901 663.011 239.609 663.115 238.712C663.138 238.516 662.97 238.353 662.774 238.386C662.348 238.454 661.667 238.608 661.246 238.919C660.601 239.399 660.384 239.867 660.384 239.867"></path>
<path stroke-linejoin="round" stroke-linecap="round" stroke="#F7F9F2" d="M563.742 238.918L561.495 237.858C561.456 237.84 561.418 237.828 561.376 237.819L557.121 237.049C556.762 236.984 556.469 237.328 556.585 237.671C556.718 238.065 556.931 238.542 557.266 238.918C557.908 239.641 559.756 240.698 560.035 240.855C560.058 240.87 560.082 240.884 560.103 240.902L561.743 242.267"></path>
<path stroke-linejoin="round" stroke-linecap="round" stroke="#F7F9F2" d="M567.614 249.485C567.614 249.485 563.569 250.095 561.224 249.831C558.878 249.568 557.919 249.44 557.398 248.093C556.876 246.746 555.79 242.354 555.92 242.265C556.05 242.176 556.746 241.614 557.572 242.265C558.399 242.917 558.875 243.832 559.269 244.613C559.663 245.395 560.075 247.006 560.075 247.006C560.075 247.006 561.173 246.485 561.766 246.441C562.358 246.396 563.489 246.441 563.489 246.441"></path>
<path stroke-linejoin="round" stroke-linecap="round" stroke="#F7F9F2" d="M560.07 240.873C560.07 240.873 558.441 241.098 557.66 241.098C556.878 241.098 556.117 241.045 556.117 241.045"></path>
<path stroke-linejoin="round" stroke-linecap="round" stroke="#F7F9F2" d="M557.733 248.72C557.733 248.72 556.048 248.832 555.178 247.917C554.307 247.002 553.795 244.044 553.7 242.699C553.608 241.376 553.531 240.419 553.7 239.987C553.839 239.634 555.37 240.046 555.681 240.324C555.98 240.594 556.395 242.012 556.395 242.012"></path>
<path stroke-linejoin="round" stroke-linecap="round" stroke="#F7F9F2" d="M551.845 244.479C551.845 244.479 550.554 242.661 550.178 241.702C549.796 240.73 549.307 238.059 549.352 238.047C549.352 238.047 550.708 237.609 551.188 237.911C551.667 238.213 551.511 238.373 551.511 238.373"></path>
<path stroke-linejoin="round" stroke-linecap="round" stroke="#F7F9F2" d="M555.011 247.711C555.011 247.711 553.528 247.613 552.918 247.006C552.308 246.399 551.831 245.093 551.701 243.31C551.597 241.901 551.336 239.609 551.233 238.711C551.209 238.516 551.378 238.353 551.573 238.386C552 238.454 552.681 238.608 553.101 238.919C553.747 239.398 553.963 239.866 553.963 239.866"></path>
<path stroke-linejoin="round" stroke-linecap="round" stroke="#F7F9F2" d="M699.06 367.667L634.722 367.69"></path>
<path stroke-linejoin="round" stroke-linecap="round" stroke="#F7F9F2" d="M579.151 367.69L514.227 367.667"></path>
<path stroke-linejoin="round" stroke-linecap="round" stroke="#F7F9F2" d="M705.455 247.238V159.093C705.455 141.885 701.13 125.812 693.421 111.63C688.908 103.31 683.267 95.5566 676.498 88.9382C669.917 82.509 662.583 76.8361 654.498 72.2978C641.712 65.1121 627.831 61.1188 612.224 60.3624"></path>
<path stroke-linejoin="round" stroke-linecap="round" stroke="#F7F9F2" d="M602.037 60.1959C585.49 60.9523 569.883 65.8689 556.533 74C541.302 83.0766 528.704 96.3134 520.243 112.008C512.722 126.002 508.397 142.075 508.397 159.093V288.435"></path>
<path stroke-linejoin="round" stroke-linecap="round" stroke="#F7F9F2" d="M705.451 361.801V274.347"></path>
<path stroke-linejoin="round" stroke-linecap="round" stroke="#F7F9F2" d="M508.397 361.804V333.44"></path>
<path stroke-linejoin="round" stroke-linecap="round" stroke="#F7F9F2" d="M621.592 367.667H592.259"></path>
<path stroke-linejoin="round" stroke-linecap="round" stroke="#F7F9F2" d="M611.809 55.2769H602.032V65.1098H611.809V55.2769Z"></path>
<path stroke-linejoin="round" stroke-linecap="round" stroke="#F7F9F2" d="M665.039 60.1894L612.337 60.1895"></path>
<path stroke-linejoin="round" stroke-linecap="round" stroke="#F7F9F2" d="M548.818 60.1927H601.843"></path>
<path stroke-linejoin="round" stroke-linecap="round" stroke="#F7F9F2" d="M544.872 63.7854C546.845 63.7854 548.445 62.1768 548.445 60.1926C548.445 58.2083 546.845 56.5997 544.872 56.5997C542.899 56.5997 541.299 58.2083 541.299 60.1926C541.299 62.1768 542.899 63.7854 544.872 63.7854Z"></path>
<path stroke-linejoin="round" stroke-linecap="round" stroke="#F7F9F2" d="M668.974 63.7854C670.947 63.7854 672.547 62.1768 672.547 60.1926C672.547 58.2083 670.947 56.5997 668.974 56.5997C667.001 56.5997 665.402 58.2083 665.402 60.1926C665.402 62.1768 667.001 63.7854 668.974 63.7854Z"></path>
</svg>
