<svg xmlns="http://www.w3.org/2000/svg" fill="none" viewBox="0 0 792 440" height="440" width="792">
<path stroke-linejoin="round" stroke-linecap="round" stroke="#082120" d="M701.28 136.456C685.284 103.836 653.069 80.7109 615.078 78.0298"></path>
<path stroke-linejoin="round" stroke-linecap="round" stroke="#082120" d="M605.516 77.7993C561.749 78.693 524.647 106.622 510.095 145.722C507.651 152.424 505.762 159.351 504.651 166.612C503.874 171.863 503.429 177.113 503.429 182.587V357.755"></path>
<path stroke-linejoin="round" stroke-linecap="round" stroke="#082120" d="M703.946 142.267C705.946 147.183 707.723 152.321 708.945 157.572"></path>
<path stroke-linejoin="round" stroke-linecap="round" stroke="#082120" d="M711.819 244.138V244.028"></path>
<path stroke-linejoin="round" stroke-linecap="round" stroke="#082120" d="M711.819 357.766V290.291"></path>
<path stroke-linejoin="round" stroke-linecap="round" stroke="#082120" d="M707.043 362.563H508.201"></path>
<path stroke-linejoin="round" stroke-linecap="round" stroke="#082120" d="M716.6 357.763H707.047V367.371H716.6V357.763Z"></path>
<path stroke-linejoin="round" stroke-linecap="round" stroke="#082120" d="M508.212 357.763H498.658V367.371H508.212V357.763Z"></path>
<path stroke-linejoin="round" stroke-linecap="round" stroke="#082120" d="M642.858 320.447C695.006 320.447 737.28 277.933 737.28 225.49C737.28 173.047 695.006 130.533 642.858 130.533C590.71 130.533 548.436 173.047 548.436 225.49C548.436 277.933 590.71 320.447 642.858 320.447Z"></path>
<path stroke-linejoin="round" stroke-linecap="round" stroke="#082120" d="M642.85 312.636C690.703 312.636 729.496 273.623 729.496 225.498C729.496 177.374 690.703 138.361 642.85 138.361C594.996 138.361 556.204 177.374 556.204 225.498C556.204 273.623 594.996 312.636 642.85 312.636Z"></path>
<path stroke-linejoin="round" stroke-linecap="round" stroke="#082120" d="M719.83 225.492H697.835"></path>
<path stroke-linejoin="round" stroke-linecap="round" stroke="#082120" d="M642.62 169.973V169.75V147.63"></path>
<path stroke-linejoin="round" stroke-linecap="round" stroke="#082120" d="M642.62 304.585V304.249V282.242"></path>
<path stroke-linejoin="round" stroke-linecap="round" stroke="#082120" d="M663.102 150.302L657.437 171.639"></path>
<path stroke-linejoin="round" stroke-linecap="round" stroke="#082120" d="M717.643 245.582L696.426 239.885"></path>
<path stroke-linejoin="round" stroke-linecap="round" stroke="#082120" d="M681.754 158.12L670.756 177.335"></path>
<path stroke-linejoin="round" stroke-linecap="round" stroke="#082120" d="M709.865 264.353L690.87 253.294"></path>
<path stroke-linejoin="round" stroke-linecap="round" stroke="#082120" d="M697.743 170.641L682.191 186.17"></path>
<path stroke-linejoin="round" stroke-linecap="round" stroke="#082120" d="M697.633 280.456L682.081 264.927"></path>
<path stroke-linejoin="round" stroke-linecap="round" stroke="#082120" d="M709.975 186.732L690.979 197.792"></path>
<path stroke-linejoin="round" stroke-linecap="round" stroke="#082120" d="M717.643 205.604L696.425 211.189"></path>
<path stroke-linejoin="round" stroke-linecap="round" stroke="#082120" d="M585.31 225.711L563.316 225.6"></path>
<path stroke-linejoin="round" stroke-linecap="round" stroke="#082120" d="M663.102 150.302L657.437 171.639"></path>
<path stroke-linejoin="round" stroke-linecap="round" stroke="#082120" d="M717.643 245.582L696.426 239.885"></path>
<path stroke-linejoin="round" stroke-linecap="round" stroke="#082120" d="M642.64 174.104V214.32M679.076 262.023L650.688 233.562"></path>
<path stroke-linejoin="round" stroke-linecap="round" stroke="#082120" d="M642.857 236.662C648.992 236.662 653.965 231.66 653.965 225.491C653.965 219.321 648.992 214.319 642.857 214.319C636.722 214.319 631.748 219.321 631.748 225.491C631.748 231.66 636.722 236.662 642.857 236.662Z"></path>
<path stroke-linejoin="round" stroke-linecap="round" stroke="#082120" d="M642.86 174.104C671.075 174.104 693.959 197.117 693.959 225.492C693.959 250.264 679.063 262.019 679.063 262.019"></path>
<path stroke-linejoin="round" stroke-linecap="round" stroke="#082120" d="M636.409 130.533H649.295V114.223H636.409V130.533Z"></path>
<path stroke-linejoin="round" stroke-linecap="round" stroke="#082120" d="M705.639 139.391L694.795 132.39L688.554 142.167L699.397 149.168L705.639 139.391Z"></path>
<path stroke-linejoin="round" stroke-linecap="round" stroke="#082120" d="M628.405 114.116H657.287"></path>
<path stroke-linejoin="round" stroke-linecap="round" stroke="#082120" d="M467.22 229.289H490.548H515.653H538.869"></path>
<path stroke-linejoin="round" stroke-linecap="round" stroke="#082120" d="M520.765 208.392H526.652H532.984H538.872"></path>
<path stroke-linejoin="round" stroke-linecap="round" stroke="#082120" d="M488.44 187.505H507.991H528.875H548.314"></path>
<path stroke-linejoin="round" stroke-linecap="round" stroke="#082120" d="M446 166.616H481.88H520.316H556.196"></path>
<path stroke-linejoin="round" stroke-linecap="round" stroke="#082120" d="M467.22 145.719H502.1H539.536H574.305"></path>
<path stroke-linejoin="round" stroke-linecap="round" stroke="#082120" d="M548.318 312.844H556.761H565.87H574.312"></path>
<path stroke-linejoin="round" stroke-linecap="round" stroke="#082120" d="M515.429 291.955H529.759H545.088H559.307"></path>
<path stroke-linejoin="round" stroke-linecap="round" stroke="#082120" d="M446 271.068H479.325H515.095H548.309"></path>
<path stroke-linejoin="round" stroke-linecap="round" stroke="#082120" d="M481.104 250.178H499.988H520.094H538.868"></path>
<path stroke-linejoin="round" stroke-linecap="round" stroke="#082120" d="M615.082 73H605.528V82.6074H615.082V73Z"></path>
<path stroke-linejoin="round" stroke-linecap="round" stroke="#082120" d="M666.512 77.7996H615.08"></path>
<path stroke-linejoin="round" stroke-linecap="round" stroke="#082120" d="M553.872 77.7996H605.304"></path>
<path stroke-linejoin="round" stroke-linecap="round" stroke="#082120" d="M550.092 81.2637C551.994 81.2637 553.536 79.7132 553.536 77.8005C553.536 75.8879 551.994 74.3374 550.092 74.3374C548.19 74.3374 546.648 75.8879 546.648 77.8005C546.648 79.7132 548.19 81.2637 550.092 81.2637Z"></path>
<path stroke-linejoin="round" stroke-linecap="round" stroke="#082120" d="M670.399 81.2637C672.301 81.2637 673.842 79.7132 673.842 77.8005C673.842 75.8879 672.301 74.3374 670.399 74.3374C668.497 74.3374 666.955 75.8879 666.955 77.8005C666.955 79.7132 668.497 81.2637 670.399 81.2637Z"></path>
</svg>
