<svg xmlns="http://www.w3.org/2000/svg" fill="none" viewBox="0 0 792 440" height="440" width="792">
<path stroke-linejoin="round" stroke-linecap="round" stroke="#E6ECD6" d="M611.321 58H601.994V67.4349H611.321V58Z"></path>
<path stroke-linejoin="round" stroke-linecap="round" stroke="#E6ECD6" d="M661.903 62.7166H611.323"></path>
<path stroke-linejoin="round" stroke-linecap="round" stroke="#E6ECD6" d="M551.058 62.7166H601.638"></path>
<path stroke-linejoin="round" stroke-linecap="round" stroke="#E6ECD6" d="M547.47 66.1633C549.352 66.1633 550.878 64.6198 550.878 62.7159C550.878 60.8119 549.352 59.2686 547.47 59.2686C545.588 59.2686 544.062 60.8119 544.062 62.7159C544.062 64.6198 545.588 66.1633 547.47 66.1633Z"></path>
<path stroke-linejoin="round" stroke-linecap="round" stroke="#E6ECD6" d="M665.85 66.1633C667.732 66.1633 669.257 64.6198 669.257 62.7159C669.257 60.8119 667.732 59.2686 665.85 59.2686C663.967 59.2686 662.442 60.8119 662.442 62.7159C662.442 64.6198 663.967 66.1633 665.85 66.1633Z"></path>
<path stroke-linejoin="round" stroke-linecap="round" stroke="#E6ECD6" d="M611.488 62.6995C637.108 63.9695 659.741 74.8761 676.7 91.9315C694.742 110.075 705.748 134.933 705.748 162.693V166.503"></path>
<path stroke-linejoin="round" stroke-linecap="round" stroke="#E6ECD6" d="M705.928 209.14V277.906C705.928 331.431 664.071 375.158 611.208 377.698"></path>
<path stroke-linejoin="round" stroke-linecap="round" stroke="#E6ECD6" d="M507.106 244.06V162.512C507.106 108.805 549.144 65.0782 601.826 62.7195"></path>
<path stroke-linejoin="round" stroke-linecap="round" stroke="#E6ECD6" d="M601.831 377.882C552.577 375.524 512.111 337.536 507.06 288.729L507.06 285.157"></path>
<path stroke-linejoin="round" stroke-linecap="round" stroke="#E6ECD6" d="M507.109 243.223C510.717 253.021 518.475 260.823 528.218 264.452C518.475 268.081 510.717 275.883 507.109 285.68C503.501 275.883 495.743 268.081 486 264.452C495.743 260.823 503.501 253.021 507.109 243.223Z"></path>
<path stroke-linejoin="round" stroke-linecap="round" stroke="#E6ECD6" d="M705.928 166.502C709.537 176.299 717.295 184.101 727.037 187.73C717.295 191.359 709.537 199.161 705.928 208.959C702.32 199.161 694.562 191.359 684.819 187.73C694.562 184.101 702.32 176.299 705.928 166.502Z"></path>
<path stroke-linejoin="round" stroke-linecap="round" stroke="#E6ECD6" d="M611.21 373.163H601.828V382.598H611.21V373.163Z"></path>
<path stroke-linejoin="round" stroke-linecap="round" stroke="#E6ECD6" d="M662.091 377.88H611.213"></path>
<path stroke-linejoin="round" stroke-linecap="round" stroke="#E6ECD6" d="M550.589 377.88H601.467"></path>
<path stroke-linejoin="round" stroke-linecap="round" stroke="#E6ECD6" d="M546.983 381.327C548.876 381.327 550.411 379.783 550.411 377.879C550.411 375.975 548.876 374.432 546.983 374.432C545.089 374.432 543.555 375.975 543.555 377.879C543.555 379.783 545.089 381.327 546.983 381.327Z"></path>
<path stroke-linejoin="round" stroke-linecap="round" stroke="#E6ECD6" d="M666.056 381.327C667.949 381.327 669.484 379.783 669.484 377.879C669.484 375.975 667.949 374.432 666.056 374.432C664.163 374.432 662.628 375.975 662.628 377.879C662.628 379.783 664.163 381.327 666.056 381.327Z"></path>
<path stroke-linejoin="round" stroke-linecap="round" stroke="#E6ECD6" d="M576.933 84.6738L595.877 171.039"></path>
<path stroke-linejoin="round" stroke-linecap="round" stroke="#E6ECD6" d="M576.57 173.763C582.885 173.763 585.42 166.509 585.42 166.509C585.42 166.509 588.117 171.222 591.906 170.134C595.695 169.045 594.379 164.188 594.379 164.188"></path>
<path stroke-linejoin="round" stroke-linecap="round" stroke="#E6ECD6" d="M585.412 166.503V167.228V169.043V375.522"></path>
<path stroke-linejoin="round" stroke-linecap="round" stroke="#E6ECD6" d="M595.877 377.881V377.336V171.039"></path>
<path stroke-linejoin="round" stroke-linecap="round" stroke="#E6ECD6" d="M582.506 111.326C580.816 111.704 578.956 112.081 576.927 112.081C574.899 112.081 572.87 111.893 571.011 111.326"></path>
<path stroke-linejoin="round" stroke-linecap="round" stroke="#E6ECD6" d="M576.57 84.6738L557.626 171.039"></path>
<path stroke-linejoin="round" stroke-linecap="round" stroke="#E6ECD6" d="M576.93 173.762C570.616 173.762 568.286 166.535 568.286 166.535C568.286 166.535 565.384 171.222 561.595 170.134C557.806 169.045 559.165 164.161 559.165 164.161"></path>
<path stroke-linejoin="round" stroke-linecap="round" stroke="#E6ECD6" d="M568.271 370.079V169.043V167.228V166.503"></path>
<path stroke-linejoin="round" stroke-linecap="round" stroke="#E6ECD6" d="M557.626 364.998V171.039"></path>
<path stroke-linejoin="round" stroke-linecap="round" stroke="#E6ECD6" d="M632.862 270.107H646.754V250.511C646.754 250.511 652.708 216.4 654.692 207.872C656.677 199.345 656.742 179.029 656.742 179.029L653.8 178.84"></path>
<path stroke-linejoin="round" stroke-linecap="round" stroke="#E6ECD6" d="M646.753 270.104C646.753 270.104 657.578 300.587 657.217 315.646C657.217 318.912 656.315 337.782 655.233 364.998"></path>
<path stroke-linejoin="round" stroke-linecap="round" stroke="#E6ECD6" d="M633.643 84.6658C633.643 84.6658 635.384 92.4234 638.81 98.5574C642.236 104.691 658.645 138.068 658.104 153.583C657.563 168.918 653.777 178.841 653.777 178.841L632.86 177.758"></path>
<path stroke-linejoin="round" stroke-linecap="round" stroke="#E6ECD6" d="M633.642 84.6655C633.642 84.6655 631.576 92.4231 628.15 98.5571C624.725 104.691 608.316 138.067 608.857 153.583C609.398 168.918 613.184 178.84 613.184 178.84L634.101 177.758"></path>
<path stroke-linejoin="round" stroke-linecap="round" stroke="#E6ECD6" d="M634.124 270.107H620.232V250.511C620.232 250.511 614.278 216.4 612.293 207.872C610.309 199.345 610.274 178.948 610.274 178.948L613.188 178.84"></path>
<path stroke-linejoin="round" stroke-linecap="round" stroke="#E6ECD6" d="M620.232 270.104C620.232 270.104 609.407 300.587 609.768 315.646C609.768 319.456 610.85 343.588 612.293 377.699"></path>
<path stroke-linejoin="round" stroke-linecap="round" stroke="#E6ECD6" d="M627.269 247.063H639.717"></path>
<path stroke-linejoin="round" stroke-linecap="round" stroke="#E6ECD6" d="M619.508 186.827L622.936 191.363H634.843"></path>
<path stroke-linejoin="round" stroke-linecap="round" stroke="#E6ECD6" d="M647.473 186.826L644.045 191.362H632.137"></path>
<path stroke-linejoin="round" stroke-linecap="round" stroke="#E6ECD6" d="M633.582 326.354C639.76 326.354 644.768 321.317 644.768 315.105C644.768 308.892 639.76 303.855 633.582 303.855C627.405 303.855 622.396 308.892 622.396 315.105C622.396 321.317 627.405 326.354 633.582 326.354Z"></path>
</svg>
